{"title":"College Campus 2011 DVDRIP","uid":7076272,"size":852680534,"categoryP":"video","categoryS":"movies","magnet":"?xt=urn:btih:9e5f261b9aa27f5cc5bee9b5e0f7acdb01ad4cc1&amp;dn=College+Campus+2011+DVDRIP&amp;tr=udp%3A%2F%2Ftracker.openbittorrent.com%3A80&amp;tr=udp%3A%2F%2Fopen.demonii.com%3A1337&amp;tr=udp%3A%2F%2Ftracker.coppersurfer.tk%3A6969&amp;tr=udp%3A%2F%2Fexodus.desync.com%3A6969","seeders":0,"leechers":1,"uploader":"arsenal_rocks","files":2,"time":1330858975,"description":" &lt;a href=&quot;http://img337.imageshack.us/img337/7049/collegecampus001.jpg&quot; rel=&quot;nofollow&quot; target=&quot;_NEW&quot;&gt;http://img337.imageshack.us/img337/7049/collegecampus001.jpg&lt;/a&gt;\n\nGeneral\nComplete name                            : College Campus 2011 DVDRIP.avi\nFormat                                   : AVI\nFormat/Info                              : Audio Video Interleave\nFile size                                : 813 MiB\nDuration                                 : 1h 56mn\nOverall bit rate                         : 976 Kbps\nWriting application                      : Lavf52.93.0\n\nVideo\nID                                       : 0\nFormat                                   : MPEG-4 Visual\nFormat profile                           : Simple@L1\nFormat settings, BVOP                    : No\nFormat settings, QPel                    : No\nFormat settings, GMC                     : No warppoints\nFormat settings, Matrix                  : Default (H.263)\nCodec ID                                 : FMP4\nDuration                                 : 1h 56mn\nBit rate                                 : 834 Kbps\nWidth                                    : 624 pixels\nHeight                                   : 272 pixels\nDisplay aspect ratio                     : 2.25:1\nFrame rate                               : 29.970 fps\nColor space                              : YUV\nChroma subsampling                       : 4:2:0\nBit depth                                : 8 bits\nScan type                                : Progressive\nCompression mode                         : Lossy\nBits/(Pixel*Frame)                       : 0.164\nStream size                              : 695 MiB (85%)\nWriting library                          : Lavc52.108.0\n\nAudio\nID                                       : 1\nFormat                                   : MPEG Audio\nFormat version                           : Version 1\nFormat profile                           : Layer 2\nCodec ID                                 : 50\nDuration                                 : 1h 56mn\nBit rate mode                            : Constant\nBit rate                                 : 128 Kbps\nChannel(s)                               : 2 channels\nSampling rate                            : 48.0 KHz\nCompression mode                         : Lossy\nStream size                              : 107 MiB (13%)\nAlignment                                : Aligned on interleaves\nInterleave, duration                     : 24 ms (0.72 video frame)\nInterleave, preload duration             : 48 ms\n\n &lt;a href=&quot;\nhttp://img708.imageshack.us/img708/3554/11921062.jpg&quot; rel=&quot;nofollow&quot; target=&quot;_NEW&quot;&gt;\nhttp://img708.imageshack.us/img708/3554/11921062.jpg&lt;/a&gt;","torrent":{"xt":"urn:btih:9e5f261b9aa27f5cc5bee9b5e0f7acdb01ad4cc1","amp;dn":"College+Campus+2011+DVDRIP","amp;tr":["udp%3A%2F%2Ftracker.openbittorrent.com%3A80","udp%3A%2F%2Fopen.demonii.com%3A1337","udp%3A%2F%2Ftracker.coppersurfer.tk%3A6969","udp%3A%2F%2Fexodus.desync.com%3A6969"],"infoHash":"9e5f261b9aa27f5cc5bee9b5e0f7acdb01ad4cc1","infoHashBuffer":{"type":"Buffer","data":[158,95,38,27,154,162,127,92,197,190,233,181,224,247,172,219,1,173,76,193]},"announce":[],"urlList":[]}}